<?xml version="1.0" encoding="UTF-8" standalone="no"?>
<!DOCTYPE svg PUBLIC "-//W3C//DTD SVG 1.1//EN" "http://www.w3.org/Graphics/SVG/1.1/DTD/svg11.dtd">
<svg width="100%" height="100%" viewBox="0 0 439 439" version="1.1" xmlns="http://www.w3.org/2000/svg" xmlns:xlink="http://www.w3.org/1999/xlink" xml:space="preserve" xmlns:serif="http://www.serif.com/" style="fill-rule:evenodd;clip-rule:evenodd;stroke-linejoin:round;stroke-miterlimit:2;">
    <g>
        <g>
            <path d="M158.173,352.599C155.124,353.167 153.792,354.598 154.174,356.88C154.554,359.163 156.267,359.926 159.312,359.163C162.361,358.403 163.692,357.068 163.309,355.166C162.931,353.074 161.218,352.216 158.173,352.599Z" style="fill:rgb(115,122,133);fill-rule:nonzero;"/>
            <path d="M141.898,354.885C138.852,354.885 137.33,355.926 137.33,358.024C137.33,360.498 138.949,361.542 142.183,361.162C145.229,361.162 146.753,360.115 146.753,358.024C146.753,355.553 145.134,354.502 141.898,354.885Z" style="fill:rgb(115,122,133);fill-rule:nonzero;"/>
            <path d="M119.629,354.022C118.869,356.117 120.107,357.541 123.34,358.306C126.195,359.443 128.004,358.874 128.764,356.592C129.336,354.501 128.098,352.982 125.053,352.024C122.197,351.265 120.39,351.922 119.629,354.022Z" style="fill:rgb(115,122,133);fill-rule:nonzero;"/>
            <path d="M414.41,24.123C398.326,8.042 378.964,0 356.309,0L82.225,0C59.577,0 40.208,8.042 24.123,24.123C8.042,40.207 0,59.576 0,82.225L0,356.313C0,378.963 8.042,398.33 24.123,414.411C40.207,430.495 59.577,438.537 82.225,438.537L146.178,438.537C150.362,438.537 153.505,438.393 155.598,438.113C157.69,437.825 159.782,436.587 161.877,434.396C163.973,432.209 165.017,429.02 165.017,424.834C165.017,424.266 164.967,417.788 164.873,405.417C164.776,393.042 164.729,383.241 164.729,376.007L158.162,377.15C153.975,377.91 148.693,378.245 142.316,378.149C135.942,378.053 129.326,377.389 122.475,376.151C115.62,374.912 109.246,372.058 103.345,367.589C97.447,363.112 93.26,357.261 90.785,350.03L87.929,343.459C86.026,339.086 83.03,334.23 78.937,328.905C74.844,323.573 70.705,319.956 66.518,318.053L64.519,316.625C63.188,315.674 61.951,314.527 60.808,313.196C59.667,311.861 58.811,310.527 58.24,309.199C57.669,307.864 58.143,306.769 59.667,305.91C61.191,305.055 63.948,304.631 67.947,304.631L73.655,305.486C77.463,306.246 82.171,308.528 87.789,312.337C93.403,316.143 98.018,321.091 101.635,327.18C106.015,334.986 111.292,340.93 117.481,345.023C123.665,349.12 129.9,351.166 136.18,351.166C142.46,351.166 147.884,350.69 152.454,349.742C157.019,348.788 161.302,347.357 165.301,345.454C167.014,332.703 171.678,322.895 179.289,316.044C168.441,314.901 158.687,313.19 150.024,310.904C141.366,308.618 132.419,304.909 123.189,299.768C113.955,294.628 106.295,288.256 100.204,280.638C94.114,273.02 89.116,263.028 85.217,250.66C81.316,238.285 79.365,224.008 79.365,207.831C79.365,184.802 86.886,165.194 101.922,149.017C94.878,131.697 95.543,112.285 103.919,90.775C109.439,89.061 117.625,90.347 128.473,94.63C139.323,98.916 147.267,102.581 152.313,105.622C157.359,108.664 161.402,111.236 164.448,113.332C182.153,108.383 200.424,105.909 219.266,105.909C238.107,105.909 256.381,108.383 274.087,113.332L284.936,106.48C292.362,101.91 301.116,97.723 311.205,93.918C321.293,90.112 329,89.064 334.332,90.778C342.894,112.288 343.66,131.7 336.611,149.019C351.647,165.198 359.17,184.805 359.17,207.834C359.17,224.014 357.219,238.339 353.318,250.803C349.42,263.27 344.379,273.266 338.188,280.784C332.004,288.303 324.294,294.627 315.064,299.77C305.832,304.907 296.886,308.623 288.224,310.902C279.563,313.188 269.81,314.906 258.961,316.049C268.852,324.611 273.8,338.121 273.8,356.587L273.8,424.825C273.8,428.062 274.272,430.677 275.224,432.676C276.182,434.674 277.702,436.05 279.795,436.817C281.897,437.577 283.744,438.052 285.366,438.241C286.988,438.432 289.315,438.528 292.361,438.528L356.314,438.528C378.962,438.528 398.332,430.486 414.409,414.402C430.493,398.318 438.535,378.948 438.535,356.3L438.535,82.225C438.533,59.576 430.491,40.204 414.41,24.123Z" style="fill:rgb(115,122,133);fill-rule:nonzero;"/>
            <path d="M86.793,319.195C85.462,320.143 85.652,321.666 87.365,323.76C89.271,325.662 90.792,325.949 91.935,324.615C93.266,323.667 93.076,322.144 91.36,320.046C89.458,318.336 87.936,318.049 86.793,319.195Z" style="fill:rgb(115,122,133);fill-rule:nonzero;"/>
            <path d="M77.374,312.057C76.804,313.392 77.47,314.535 79.373,315.483C80.894,316.438 82.135,316.25 83.084,314.915C83.654,313.58 82.988,312.437 81.085,311.482C79.182,310.91 77.945,311.102 77.374,312.057Z" style="fill:rgb(115,122,133);fill-rule:nonzero;"/>
            <path d="M95.646,330.331C93.931,331.279 93.931,332.997 95.646,335.468C97.359,337.946 98.974,338.61 100.499,337.466C102.213,336.132 102.213,334.324 100.499,332.039C98.978,329.571 97.359,328.993 95.646,330.331Z" style="fill:rgb(115,122,133);fill-rule:nonzero;"/>
            <path d="M105.641,343.174C103.927,344.7 104.305,346.501 106.783,348.602C109.064,350.881 110.968,351.168 112.491,349.451C114.015,347.932 113.634,346.125 111.349,344.031C109.068,341.751 107.164,341.463 105.641,343.174Z" style="fill:rgb(115,122,133);fill-rule:nonzero;"/>
        </g>
    </g>
</svg>
