<svg width="721" height="249" viewBox="0 0 721 249" fill="none" xmlns="http://www.w3.org/2000/svg">
<path d="M106.091 12.0114C105.623 16.9227 105.272 21.7273 105.038 26.4251C104.92 31.0161 104.862 34.5395 104.862 36.9951C104.862 39.4508 104.92 41.7463 105.038 43.8817C105.155 46.0171 105.272 47.8855 105.389 49.487H101.349C99.7101 40.9456 97.7196 34.2726 95.3779 29.468C93.0361 24.5567 89.9333 21.0333 86.0694 18.898C82.3226 16.7626 77.3464 15.6949 71.1407 15.6949H65.5205V106.982C65.5205 111.359 65.9303 114.616 66.75 116.751C67.6867 118.886 69.5015 120.328 72.1945 121.075C74.8875 121.716 78.81 122.089 83.9618 122.196V125.399C80.4492 125.186 75.8828 125.079 70.2626 125.079C64.6424 124.972 58.9051 124.919 53.0507 124.919C46.9622 124.919 41.2249 124.972 35.8388 125.079C30.5699 125.079 26.2962 125.186 23.0177 125.399V122.196C28.0525 122.089 31.9164 121.716 34.6094 121.075C37.3024 120.328 39.1173 118.886 40.054 116.751C40.9907 114.616 41.459 111.359 41.459 106.982V15.6949H35.6632C29.5746 15.6949 24.5984 16.7626 20.7345 18.898C16.8706 21.0333 13.7678 24.5567 11.4261 29.468C9.08432 34.2726 7.15238 40.9456 5.63024 49.487H1.59072C1.82489 47.8855 1.94198 46.0171 1.94198 43.8817C2.05907 41.7463 2.11761 39.4508 2.11761 36.9951C2.11761 34.5395 2.00052 31.0161 1.76635 26.4251C1.64926 21.7273 1.35654 16.9227 0.888193 12.0114C6.04005 12.1182 11.7188 12.225 17.9244 12.3317C24.1301 12.4385 30.3357 12.4919 36.5414 12.4919C42.747 12.4919 48.4257 12.4919 53.5776 12.4919C58.6124 12.4919 64.2326 12.4919 70.4382 12.4919C76.6439 12.4919 82.8495 12.4385 89.0551 12.3317C95.2608 12.225 100.94 12.1182 106.091 12.0114Z" fill="#3D3A35"/>
<path d="M147.099 0V56.6939C150.026 50.7149 154.065 46.4975 159.217 44.0418C164.486 41.5862 170.165 40.3583 176.253 40.3583C181.054 40.3583 184.976 40.9456 188.021 42.12C191.065 43.2945 193.524 44.7892 195.397 46.6043C197.388 48.6329 198.793 51.2487 199.612 54.4517C200.549 57.6548 201.017 61.9789 201.017 67.4241V110.505C201.017 114.989 201.896 118.032 203.652 119.634C205.525 121.235 208.628 122.036 212.96 122.036V125.399C210.853 125.292 207.633 125.186 203.301 125.079C198.968 124.865 194.695 124.759 190.479 124.759C186.264 124.759 182.108 124.865 178.01 125.079C173.912 125.186 170.809 125.292 168.701 125.399V122.036C172.448 122.036 175.082 121.235 176.605 119.634C178.127 118.032 178.888 114.989 178.888 110.505V61.9789C178.888 59.0961 178.595 56.5337 178.01 54.2916C177.424 51.9427 176.253 50.1276 174.497 48.8464C172.858 47.4584 170.34 46.7644 166.945 46.7644C163.198 46.7644 159.803 47.7253 156.758 49.6472C153.831 51.4622 151.489 54.078 149.733 57.4946C147.977 60.8044 147.099 64.5947 147.099 68.8654V110.505C147.099 114.989 147.86 118.032 149.382 119.634C151.021 121.235 153.655 122.036 157.285 122.036V125.399C155.295 125.292 152.309 125.186 148.328 125.079C144.464 124.865 140.425 124.759 136.209 124.759C131.994 124.759 127.603 124.865 123.037 125.079C118.588 125.186 115.251 125.292 113.026 125.399V122.036C117.358 122.036 120.403 121.235 122.159 119.634C124.032 118.032 124.969 114.989 124.969 110.505V19.2183C124.969 14.4137 124.091 10.8904 122.335 8.64822C120.695 6.29932 117.592 5.12487 113.026 5.12487V1.76168C116.773 2.08198 120.403 2.24213 123.915 2.24213C128.365 2.24213 132.521 2.08198 136.385 1.76168C140.249 1.33461 143.82 0.74738 147.099 0Z" fill="#3D3A35"/>
<path d="M264.168 40.3583C274.471 40.3583 282.551 43.1877 288.405 48.8464C294.259 54.5051 297.187 63.527 297.187 75.9121H237.999L237.823 72.8692H276.813C277.047 67.6376 276.696 62.833 275.759 58.4555C274.823 53.9713 273.301 50.3946 271.193 47.7253C269.203 45.0561 266.568 43.7215 263.29 43.7215C258.84 43.7215 254.976 46.1238 251.698 50.9284C248.42 55.6262 246.37 63.3669 245.551 74.1505L246.253 75.1114C246.019 76.4994 245.844 77.9941 245.727 79.5956C245.727 81.1972 245.727 82.7987 245.727 84.4002C245.727 91.7672 246.897 97.853 249.239 102.658C251.581 107.462 254.625 110.985 258.372 113.228C262.119 115.47 265.983 116.591 269.964 116.591C272.657 116.591 275.408 116.217 278.218 115.47C281.028 114.722 283.78 113.334 286.473 111.306C289.166 109.277 291.625 106.394 293.849 102.658L297.187 103.939C295.899 107.676 293.732 111.413 290.688 115.149C287.761 118.78 283.956 121.769 279.272 124.118C274.589 126.467 269.085 127.641 262.763 127.641C254.801 127.641 247.776 126.04 241.687 122.837C235.598 119.634 230.856 114.882 227.461 108.583C224.065 102.177 222.368 94.383 222.368 85.201C222.368 75.4851 224.124 67.3173 227.636 60.6977C231.266 54.078 236.242 49.0599 242.565 45.6434C248.888 42.12 256.089 40.3583 264.168 40.3583Z" fill="#3D3A35"/>
<path d="M384.971 42.6005V45.9637C382.161 45.9637 379.76 46.1772 377.77 46.6043C375.779 46.9246 374.433 47.7787 373.73 49.1667C373.145 50.5547 373.437 53.0104 374.608 56.5337L391.82 104.259L389.888 105.54L412.194 42.2802L415.882 43.8817L387.254 125.88C385.849 125.773 384.385 125.719 382.863 125.719C381.458 125.719 380.053 125.773 378.648 125.88L350.547 54.9322C348.673 50.6615 346.8 48.099 344.927 47.2449C343.17 46.3907 341.648 45.9637 340.36 45.9637V42.6005C343.639 42.9208 347.034 43.1877 350.547 43.4012C354.06 43.508 357.923 43.5614 362.139 43.5614C365.768 43.5614 369.574 43.4546 373.555 43.2411C377.653 43.0275 381.458 42.814 384.971 42.6005ZM478.231 42.6005V45.9637C476.006 46.3907 473.84 47.5118 471.733 49.3269C469.742 51.0352 467.927 54.2382 466.288 58.936L442.226 125.88C440.821 125.773 439.416 125.719 438.011 125.719C436.606 125.719 435.143 125.773 433.621 125.88L407.803 62.9398L412.369 42.2802C414.008 42.3869 415.648 42.4403 417.287 42.4403C418.926 42.4403 420.565 42.3869 422.204 42.2802L447.32 107.462L445.563 106.661L459.263 67.9045C461.019 62.7796 461.663 58.6691 461.195 55.5728C460.843 52.4765 459.497 50.181 457.155 48.6863C454.93 47.0847 451.828 46.1772 447.847 45.9637V42.6005C449.72 42.7072 451.652 42.814 453.642 42.9208C455.633 43.0275 457.565 43.1343 459.438 43.2411C461.312 43.2411 463.068 43.2411 464.707 43.2411C467.166 43.2411 469.625 43.1877 472.084 43.0809C474.543 42.9742 476.592 42.814 478.231 42.6005Z" fill="#3D3A35"/>
<path d="M504.619 1.76168C508.835 1.76168 512.289 2.82936 514.982 4.96472C517.675 7.10008 519.021 9.92943 519.021 13.4528C519.021 16.9761 517.675 19.8055 514.982 21.9408C512.289 24.0762 508.835 25.1439 504.619 25.1439C500.404 25.1439 496.95 24.0762 494.257 21.9408C491.564 19.8055 490.218 16.9761 490.218 13.4528C490.218 9.92943 491.564 7.10008 494.257 4.96472C496.95 2.82936 500.404 1.76168 504.619 1.76168ZM516.914 40.8388V110.505C516.914 114.989 517.792 118.032 519.548 119.634C521.422 121.235 524.524 122.036 528.857 122.036V125.399C526.749 125.292 523.529 125.186 519.197 125.079C514.865 124.865 510.474 124.759 506.025 124.759C501.692 124.759 497.302 124.865 492.852 125.079C488.403 125.186 485.066 125.292 482.841 125.399V122.036C487.173 122.036 490.218 121.235 491.974 119.634C493.847 118.032 494.784 114.989 494.784 110.505V60.2172C494.784 55.3059 493.906 51.7291 492.15 49.487C490.51 47.1381 487.408 45.9637 482.841 45.9637V42.6005C486.588 42.9208 490.218 43.0809 493.73 43.0809C498.063 43.0809 502.161 42.9208 506.025 42.6005C510.005 42.1734 513.635 41.5862 516.914 40.8388Z" fill="#3D3A35"/>
<path d="M599.92 40.3583C604.838 40.3583 608.76 40.9456 611.687 42.12C614.732 43.2945 617.19 44.7892 619.064 46.6043C621.172 48.6329 622.635 51.2487 623.455 54.4517C624.391 57.6548 624.86 61.9789 624.86 67.4241V110.505C624.86 114.989 625.738 118.032 627.494 119.634C629.368 121.235 632.47 122.036 636.803 122.036V125.399C634.695 125.292 631.417 125.186 626.967 125.079C622.635 124.865 618.42 124.759 614.322 124.759C609.99 124.759 605.774 124.865 601.676 125.079C597.578 125.186 594.534 125.292 592.544 125.399V122.036C596.29 122.036 598.925 121.235 600.447 119.634C601.969 118.032 602.73 114.989 602.73 110.505V61.9789C602.73 59.0961 602.437 56.5337 601.852 54.2916C601.267 51.9427 600.096 50.1276 598.339 48.8464C596.583 47.4584 594.066 46.7644 590.787 46.7644C586.923 46.7644 583.469 47.7253 580.425 49.6472C577.498 51.569 575.156 54.2382 573.4 57.6548C571.76 60.9646 570.941 64.7015 570.941 68.8654V110.505C570.941 114.989 571.702 118.032 573.224 119.634C574.746 121.235 577.381 122.036 581.128 122.036V125.399C579.137 125.292 576.151 125.186 572.17 125.079C568.189 124.865 564.15 124.759 560.052 124.759C555.719 124.759 551.329 124.865 546.879 125.079C542.43 125.186 539.093 125.292 536.868 125.399V122.036C541.201 122.036 544.245 121.235 546.001 119.634C547.875 118.032 548.811 114.989 548.811 110.505V60.0571C548.811 55.2525 547.933 51.7291 546.177 49.487C544.538 47.1381 541.435 45.9637 536.868 45.9637V42.6005C540.615 42.9208 544.245 43.0809 547.758 43.0809C552.09 43.0809 556.188 42.9208 560.052 42.6005C564.033 42.1734 567.662 41.5862 570.941 40.8388V56.854C573.868 50.7682 577.908 46.4975 583.059 44.0418C588.211 41.5862 593.832 40.3583 599.92 40.3583Z" fill="#3D3A35"/>
<path d="M687.981 40.3583C698.285 40.3583 706.364 43.1877 712.218 48.8464C718.073 54.5051 721 63.527 721 75.9121H661.812L661.637 72.8692H700.627C700.861 67.6376 700.51 62.833 699.573 58.4555C698.636 53.9713 697.114 50.3946 695.007 47.7253C693.016 45.0561 690.382 43.7215 687.103 43.7215C682.654 43.7215 678.79 46.1238 675.511 50.9284C672.233 55.6262 670.184 63.3669 669.364 74.1505L670.067 75.1114C669.833 76.4994 669.657 77.9941 669.54 79.5956C669.54 81.1972 669.54 82.7987 669.54 84.4002C669.54 91.7672 670.711 97.853 673.053 102.658C675.394 107.462 678.439 110.985 682.185 113.228C685.932 115.47 689.796 116.591 693.777 116.591C696.47 116.591 699.222 116.217 702.032 115.47C704.842 114.722 707.594 113.334 710.286 111.306C712.979 109.277 715.438 106.394 717.663 102.658L721 103.939C719.712 107.676 717.546 111.413 714.502 115.149C711.574 118.78 707.769 121.769 703.086 124.118C698.402 126.467 692.899 127.641 686.576 127.641C678.614 127.641 671.589 126.04 665.5 122.837C659.412 119.634 654.67 114.882 651.274 108.583C647.879 102.177 646.181 94.383 646.181 85.201C646.181 75.4851 647.937 67.3173 651.45 60.6977C655.08 54.078 660.056 49.0599 666.379 45.6434C672.701 42.12 679.902 40.3583 687.981 40.3583Z" fill="#3D3A35"/>
<path d="M16.0176 229.123C12.5652 229.123 9.63463 228.537 7.22598 227.366C4.81732 226.121 3.01082 224.474 1.80649 222.424C0.602165 220.301 0 217.958 0 215.396C0 212.247 0.802886 209.685 2.40866 207.708C4.01443 205.658 6.06179 204.048 8.55074 202.876C11.12 201.632 13.8096 200.607 16.6197 199.801C19.4298 198.923 22.0794 198.117 24.5683 197.385C27.0573 196.58 29.1046 195.665 30.7104 194.64C32.3162 193.615 33.1191 192.26 33.1191 190.576V182.56C33.1191 180.217 32.7176 178.313 31.9147 176.849C31.1921 175.312 30.0681 174.177 28.5426 173.445C27.0974 172.639 25.2508 172.237 23.0027 172.237C21.3166 172.237 19.5503 172.456 17.7036 172.896C15.857 173.335 14.3315 174.177 13.1272 175.422C15.2147 175.934 16.8205 176.886 17.9445 178.277C19.1488 179.668 19.751 181.352 19.751 183.328C19.751 185.598 18.908 187.392 17.2219 188.71C15.6161 189.954 13.5688 190.576 11.0798 190.576C8.43031 190.576 6.42309 189.808 5.05818 188.27C3.69328 186.733 3.01082 184.939 3.01082 182.889C3.01082 180.839 3.57284 179.155 4.69688 177.838C5.82092 176.446 7.38655 175.202 9.39377 174.104C11.401 172.859 13.9702 171.871 17.1015 171.139C20.2327 170.406 23.645 170.04 27.3383 170.04C30.871 170.04 34.0022 170.406 36.732 171.139C39.4619 171.798 41.7902 173.006 43.7172 174.763C45.6441 176.446 46.8886 178.533 47.4506 181.022C48.0126 183.511 48.2936 186.55 48.2936 190.137V220.228C48.2936 222.058 48.5345 223.376 49.0162 224.181C49.4979 224.913 50.2607 225.279 51.3044 225.279C52.1073 225.279 52.8701 225.096 53.5927 224.73C54.3153 224.364 55.1181 223.852 56.0013 223.193L57.3261 225.06C55.5597 226.304 53.7131 227.293 51.7862 228.025C49.8592 228.757 47.5309 229.123 44.801 229.123C41.9909 229.123 39.7429 228.757 38.0568 228.025C36.451 227.293 35.2467 226.231 34.4438 224.84C33.7212 223.449 33.3198 221.802 33.2395 219.898C31.3126 222.827 28.944 225.096 26.1339 226.707C23.3238 228.317 19.9517 229.123 16.0176 229.123ZM23.2436 222.973C25.1705 222.973 26.9368 222.497 28.5426 221.545C30.2287 220.594 31.7541 219.166 33.1191 217.262V195.079C32.3162 196.177 31.152 197.166 29.6265 198.044C28.1813 198.923 26.6157 199.801 24.9296 200.68C23.2436 201.558 21.6378 202.583 20.1123 203.755C18.6671 204.853 17.4226 206.244 16.3789 207.928C15.4154 209.538 14.9337 211.625 14.9337 214.188C14.9337 217.043 15.6964 219.239 17.2219 220.777C18.7474 222.241 20.7546 222.973 23.2436 222.973Z" fill="#3D3A35"/>
<path d="M103.18 170.04C106.311 170.04 108.921 170.443 111.008 171.248C113.176 172.054 114.862 173.079 116.066 174.323C117.511 175.714 118.515 177.581 119.077 179.924C119.639 182.194 119.92 185.086 119.92 188.6V218.141C119.92 221.216 120.482 223.302 121.606 224.401C122.811 225.499 124.818 226.048 127.628 226.048V228.354C126.183 228.281 124.015 228.208 121.124 228.134C118.234 227.988 115.424 227.915 112.694 227.915C109.804 227.915 106.994 227.988 104.264 228.134C101.614 228.208 99.6071 228.281 98.2422 228.354V226.048C100.571 226.048 102.217 225.499 103.18 224.401C104.224 223.302 104.746 221.216 104.746 218.141V184.866C104.746 182.889 104.585 181.132 104.264 179.595C103.943 177.984 103.26 176.739 102.217 175.861C101.173 174.909 99.567 174.433 97.3992 174.433C94.9102 174.433 92.6622 175.092 90.6549 176.41C88.6477 177.728 87.042 179.558 85.8376 181.901C84.7136 184.17 84.1516 186.733 84.1516 189.588V218.141C84.1516 221.216 84.6333 223.302 85.5968 224.401C86.5602 225.499 88.2463 226.048 90.6549 226.048V228.354C89.29 228.281 87.2828 228.208 84.6333 228.134C82.0641 227.988 79.4145 227.915 76.6847 227.915C73.714 227.915 70.7032 227.988 67.6523 228.134C64.6013 228.208 62.3131 228.281 60.7876 228.354V226.048C63.7583 226.048 65.8458 225.499 67.0501 224.401C68.3347 223.302 68.977 221.216 68.977 218.141V183.548C68.977 180.254 68.3748 177.838 67.1705 176.3C66.0465 174.689 63.9188 173.884 60.7876 173.884V171.578C63.3568 171.798 65.8458 171.907 68.2544 171.907C71.2251 171.907 74.0352 171.798 76.6847 171.578C79.4145 171.285 81.9035 170.882 84.1516 170.37V181.352C86.1588 177.325 88.8484 174.433 92.2206 172.676C95.5927 170.919 99.2458 170.04 103.18 170.04ZM139.43 170.04C142.562 170.04 145.171 170.443 147.258 171.248C149.426 172.054 151.112 173.079 152.317 174.323C153.762 175.714 154.765 177.581 155.327 179.924C155.889 182.194 156.17 185.086 156.17 188.6V218.141C156.17 221.216 156.773 223.302 157.977 224.401C159.262 225.499 161.389 226.048 164.36 226.048V228.354C162.915 228.281 160.667 228.208 157.616 228.134C154.645 227.988 151.755 227.915 148.944 227.915C146.054 227.915 143.244 227.988 140.514 228.134C137.865 228.208 135.857 228.281 134.493 228.354V226.048C136.821 226.048 138.467 225.499 139.43 224.401C140.474 223.302 140.996 221.216 140.996 218.141V184.866C140.996 182.889 140.795 181.132 140.394 179.595C140.073 177.984 139.35 176.739 138.226 175.861C137.102 174.909 135.416 174.433 133.168 174.433C130.679 174.433 128.431 175.129 126.424 176.52C124.416 177.911 122.811 179.778 121.606 182.12C120.482 184.39 119.88 186.952 119.8 189.808L119.198 181.901C121.365 177.362 124.256 174.25 127.869 172.566C131.482 170.882 135.336 170.04 139.43 170.04Z" fill="#3D3A35"/>
<path d="M199.697 170.04C205.237 170.04 210.134 171.065 214.389 173.115C218.725 175.092 222.137 178.277 224.626 182.67C227.195 187.062 228.48 192.846 228.48 200.021C228.48 207.196 227.195 212.979 224.626 217.372C222.137 221.765 218.725 224.95 214.389 226.926C210.134 228.903 205.237 229.892 199.697 229.892C194.157 229.892 189.219 228.903 184.883 226.926C180.548 224.95 177.135 221.765 174.647 217.372C172.158 212.979 170.913 207.196 170.913 200.021C170.913 192.846 172.158 187.062 174.647 182.67C177.135 178.277 180.548 175.092 184.883 173.115C189.219 171.065 194.157 170.04 199.697 170.04ZM199.697 172.237C195.923 172.237 192.832 174.433 190.423 178.826C188.095 183.145 186.931 190.21 186.931 200.021C186.931 209.831 188.095 216.896 190.423 221.216C192.832 225.535 195.923 227.695 199.697 227.695C203.39 227.695 206.441 225.535 208.849 221.216C211.258 216.896 212.462 209.831 212.462 200.021C212.462 190.21 211.258 183.145 208.849 178.826C206.441 174.433 203.39 172.237 199.697 172.237Z" fill="#3D3A35"/>
<path d="M279.615 170.04C282.987 170.04 285.677 170.443 287.684 171.248C289.772 172.054 291.458 173.079 292.742 174.323C294.188 175.714 295.191 177.508 295.753 179.704C296.395 181.901 296.717 184.866 296.717 188.6V218.141C296.717 221.216 297.319 223.302 298.523 224.401C299.808 225.499 301.935 226.048 304.906 226.048V228.354C303.461 228.281 301.213 228.208 298.162 228.134C295.191 227.988 292.301 227.915 289.491 227.915C286.52 227.915 283.63 227.988 280.819 228.134C278.009 228.208 275.922 228.281 274.557 228.354V226.048C277.126 226.048 278.933 225.499 279.976 224.401C281.02 223.302 281.542 221.216 281.542 218.141V184.866C281.542 182.889 281.341 181.132 280.94 179.595C280.538 177.984 279.736 176.739 278.531 175.861C277.327 174.909 275.601 174.433 273.353 174.433C270.703 174.433 268.335 175.092 266.247 176.41C264.24 177.728 262.634 179.558 261.43 181.901C260.306 184.17 259.744 186.733 259.744 189.588V218.141C259.744 221.216 260.266 223.302 261.309 224.401C262.353 225.499 264.16 226.048 266.729 226.048V228.354C265.364 228.281 263.317 228.208 260.587 228.134C257.857 227.988 255.087 227.915 252.277 227.915C249.306 227.915 246.295 227.988 243.244 228.134C240.193 228.208 237.905 228.281 236.38 228.354V226.048C239.35 226.048 241.438 225.499 242.642 224.401C243.927 223.302 244.569 221.216 244.569 218.141V183.548C244.569 180.254 243.967 177.838 242.763 176.3C241.639 174.689 239.511 173.884 236.38 173.884V171.578C238.949 171.798 241.438 171.907 243.847 171.907C246.817 171.907 249.627 171.798 252.277 171.578C255.007 171.285 257.496 170.882 259.744 170.37V181.352C261.751 177.179 264.521 174.25 268.054 172.566C271.586 170.882 275.44 170.04 279.615 170.04Z" fill="#3D3A35"/>
<path d="M331.592 249C326.855 249 322.56 248.597 318.706 247.792C314.852 246.987 311.801 245.779 309.553 244.168C307.305 242.631 306.181 240.654 306.181 238.238C306.181 235.895 307.305 233.808 309.553 231.978C311.801 230.148 315.093 228.757 319.429 227.805L320.272 229.562C318.746 230.367 317.582 231.466 316.779 232.857C315.976 234.248 315.575 235.712 315.575 237.249C315.575 240.398 317.14 242.814 320.272 244.497C323.483 246.255 327.738 247.133 333.038 247.133C336.65 247.133 339.982 246.694 343.033 245.815C346.084 244.937 348.533 243.582 350.38 241.752C352.226 239.922 353.15 237.652 353.15 234.943C353.15 232.674 352.226 230.77 350.38 229.233C348.613 227.695 345.041 226.926 339.661 226.926H331.713C328.742 226.926 326.012 226.634 323.523 226.048C321.115 225.462 319.188 224.51 317.742 223.193C316.297 221.875 315.575 220.044 315.575 217.702C315.575 214.846 316.859 212.284 319.429 210.014C321.998 207.672 326.012 205.402 331.472 203.206L332.797 204.194C330.789 205.146 328.983 206.171 327.377 207.269C325.852 208.367 325.089 209.758 325.089 211.442C325.089 213.785 326.855 214.956 330.388 214.956H343.997C348.172 214.956 351.865 215.432 355.077 216.384C358.369 217.336 360.978 218.836 362.905 220.886C364.832 222.936 365.795 225.645 365.795 229.013C365.795 232.527 364.551 235.785 362.062 238.787C359.573 241.862 355.799 244.314 350.741 246.145C345.763 248.048 339.38 249 331.592 249ZM332.676 204.963C328.341 204.963 324.406 204.377 320.874 203.206C317.421 201.961 314.692 200.058 312.684 197.495C310.677 194.859 309.673 191.528 309.673 187.502C309.673 183.475 310.677 180.18 312.684 177.618C314.692 175.055 317.421 173.152 320.874 171.907C324.406 170.663 328.341 170.04 332.676 170.04C337.092 170.04 341.026 170.663 344.479 171.907C347.931 173.152 350.661 175.055 352.668 177.618C354.675 180.18 355.679 183.475 355.679 187.502C355.679 191.528 354.675 194.859 352.668 197.495C350.661 200.058 347.931 201.961 344.479 203.206C341.026 204.377 337.092 204.963 332.676 204.963ZM332.676 202.986C335.085 202.986 336.972 201.888 338.337 199.691C339.782 197.422 340.504 193.359 340.504 187.502C340.504 181.645 339.782 177.618 338.337 175.422C336.972 173.152 335.085 172.017 332.676 172.017C330.268 172.017 328.341 173.152 326.895 175.422C325.531 177.618 324.848 181.645 324.848 187.502C324.848 193.359 325.531 197.422 326.895 199.691C328.341 201.888 330.268 202.986 332.676 202.986ZM350.862 179.375L348.573 178.606C349.778 175.897 351.745 173.628 354.475 171.798C357.204 169.894 360.095 168.942 363.146 168.942C365.474 168.942 367.281 169.528 368.565 170.699C369.93 171.871 370.613 173.518 370.613 175.641C370.613 177.838 369.97 179.448 368.686 180.473C367.401 181.498 365.996 182.011 364.47 182.011C363.106 182.011 361.861 181.608 360.737 180.803C359.613 179.924 358.971 178.606 358.81 176.849C358.65 175.019 359.292 172.749 360.737 170.04L361.941 170.48C358.81 171.578 356.482 172.786 354.956 174.104C353.431 175.422 352.066 177.179 350.862 179.375Z" fill="#3D3A35"/>
<path d="M426.717 171.578V173.884C424.79 173.884 423.145 174.031 421.78 174.323C420.415 174.543 419.491 175.129 419.01 176.08C418.608 177.032 418.809 178.716 419.612 181.132L431.414 213.858L430.089 214.737L445.384 171.358L447.914 172.456L428.283 228.684C427.32 228.61 426.316 228.574 425.272 228.574C424.309 228.574 423.345 228.61 422.382 228.684L403.113 180.034C401.828 177.105 400.543 175.348 399.259 174.763C398.054 174.177 397.011 173.884 396.127 173.884V171.578C398.375 171.798 400.704 171.981 403.113 172.127C405.521 172.2 408.171 172.237 411.061 172.237C413.55 172.237 416.159 172.164 418.889 172.017C421.699 171.871 424.309 171.724 426.717 171.578ZM490.667 171.578V173.884C489.142 174.177 487.656 174.946 486.211 176.19C484.846 177.362 483.602 179.558 482.478 182.779L465.978 228.684C465.015 228.61 464.052 228.574 463.088 228.574C462.125 228.574 461.121 228.61 460.077 228.684L442.374 185.525L445.505 171.358C446.629 171.431 447.753 171.468 448.877 171.468C450.001 171.468 451.125 171.431 452.249 171.358L469.471 216.054L468.267 215.505L477.66 188.929C478.865 185.415 479.306 182.596 478.985 180.473C478.744 178.35 477.821 176.776 476.215 175.751C474.69 174.653 472.562 174.03 469.832 173.884V171.578C471.117 171.651 472.442 171.724 473.807 171.798C475.172 171.871 476.496 171.944 477.781 172.017C479.066 172.017 480.27 172.017 481.394 172.017C483.08 172.017 484.766 171.981 486.452 171.907C488.138 171.834 489.543 171.724 490.667 171.578Z" fill="#3D3A35"/>
<path d="M508.762 143.574C511.653 143.574 514.021 144.306 515.868 145.771C517.714 147.235 518.638 149.175 518.638 151.591C518.638 154.007 517.714 155.947 515.868 157.411C514.021 158.876 511.653 159.608 508.762 159.608C505.872 159.608 503.503 158.876 501.657 157.411C499.81 155.947 498.887 154.007 498.887 151.591C498.887 149.175 499.81 147.235 501.657 145.771C503.503 144.306 505.872 143.574 508.762 143.574ZM517.193 170.37V218.141C517.193 221.216 517.795 223.302 518.999 224.401C520.284 225.499 522.411 226.048 525.382 226.048V228.354C523.937 228.281 521.729 228.208 518.758 228.134C515.788 227.988 512.777 227.915 509.726 227.915C506.755 227.915 503.744 227.988 500.693 228.134C497.642 228.208 495.354 228.281 493.829 228.354V226.048C496.799 226.048 498.887 225.499 500.091 224.401C501.376 223.302 502.018 221.216 502.018 218.141V183.658C502.018 180.29 501.416 177.838 500.212 176.3C499.088 174.689 496.96 173.884 493.829 173.884V171.578C496.398 171.798 498.887 171.907 501.295 171.907C504.266 171.907 507.076 171.798 509.726 171.578C512.456 171.285 514.945 170.882 517.193 170.37Z" fill="#3D3A35"/>
<path d="M574.111 170.04C577.483 170.04 580.173 170.443 582.18 171.248C584.268 172.054 585.954 173.079 587.239 174.323C588.684 175.714 589.687 177.508 590.249 179.704C590.892 181.901 591.213 184.866 591.213 188.6V218.141C591.213 221.216 591.815 223.302 593.019 224.401C594.304 225.499 596.432 226.048 599.402 226.048V228.354C597.957 228.281 595.709 228.208 592.658 228.134C589.687 227.988 586.797 227.915 583.987 227.915C581.016 227.915 578.126 227.988 575.316 228.134C572.506 228.208 570.418 228.281 569.053 228.354V226.048C571.622 226.048 573.429 225.499 574.473 224.401C575.516 223.302 576.038 221.216 576.038 218.141V184.866C576.038 182.889 575.837 181.132 575.436 179.595C575.035 177.984 574.232 176.739 573.027 175.861C571.823 174.909 570.097 174.433 567.849 174.433C565.199 174.433 562.831 175.092 560.743 176.41C558.736 177.728 557.13 179.558 555.926 181.901C554.802 184.17 554.24 186.733 554.24 189.588V218.141C554.24 221.216 554.762 223.302 555.805 224.401C556.849 225.499 558.656 226.048 561.225 226.048V228.354C559.86 228.281 557.813 228.208 555.083 228.134C552.353 227.988 549.583 227.915 546.773 227.915C543.802 227.915 540.792 227.988 537.741 228.134C534.69 228.208 532.401 228.281 530.876 228.354V226.048C533.846 226.048 535.934 225.499 537.138 224.401C538.423 223.302 539.065 221.216 539.065 218.141V183.548C539.065 180.254 538.463 177.838 537.259 176.3C536.135 174.689 534.007 173.884 530.876 173.884V171.578C533.445 171.798 535.934 171.907 538.343 171.907C541.313 171.907 544.123 171.798 546.773 171.578C549.503 171.285 551.992 170.882 554.24 170.37V181.352C556.247 177.179 559.017 174.25 562.55 172.566C566.082 170.882 569.936 170.04 574.111 170.04Z" fill="#3D3A35"/>
<path d="M634.496 170.04C641.562 170.04 647.101 171.981 651.116 175.861C655.13 179.741 657.138 185.928 657.138 194.42H616.552L616.431 192.334H643.167C643.328 188.746 643.087 185.452 642.445 182.45C641.802 179.375 640.759 176.922 639.313 175.092C637.949 173.262 636.142 172.347 633.894 172.347C630.843 172.347 628.193 173.994 625.945 177.288C623.697 180.51 622.292 185.818 621.73 193.212L622.212 193.871C622.051 194.823 621.931 195.848 621.851 196.946C621.851 198.044 621.851 199.142 621.851 200.241C621.851 205.292 622.654 209.465 624.259 212.76C625.865 216.054 627.953 218.47 630.522 220.008C633.091 221.545 635.741 222.314 638.47 222.314C640.317 222.314 642.204 222.058 644.131 221.545C646.058 221.033 647.944 220.081 649.791 218.69C651.638 217.299 653.324 215.322 654.849 212.76L657.138 213.638C656.254 216.201 654.769 218.763 652.682 221.326C650.674 223.815 648.065 225.865 644.853 227.476C641.642 229.086 637.868 229.892 633.533 229.892C628.073 229.892 623.256 228.793 619.081 226.597C614.906 224.401 611.654 221.143 609.326 216.823C606.997 212.43 605.833 207.086 605.833 200.79C605.833 194.127 607.037 188.527 609.446 183.987C611.935 179.448 615.347 176.007 619.683 173.664C624.018 171.248 628.956 170.04 634.496 170.04Z" fill="#3D3A35"/>
<path d="M687.954 170.04C691.326 170.04 694.217 170.48 696.625 171.358C699.034 172.237 700.8 173.006 701.924 173.664C704.654 175.495 706.3 174.323 706.862 170.15H709.512C709.351 172.273 709.231 174.799 709.15 177.728C709.07 180.583 709.03 184.427 709.03 189.259H706.38C705.979 186.55 705.216 183.914 704.092 181.352C702.968 178.789 701.322 176.666 699.155 174.982C696.987 173.225 694.136 172.347 690.604 172.347C688.115 172.347 686.027 173.006 684.341 174.323C682.736 175.641 681.933 177.508 681.933 179.924C681.933 182.12 682.655 184.061 684.1 185.744C685.546 187.355 687.392 188.893 689.64 190.357C691.969 191.748 694.377 193.285 696.866 194.969C699.757 196.726 702.326 198.52 704.574 200.35C706.822 202.107 708.629 204.084 709.993 206.281C711.358 208.404 712.041 210.93 712.041 213.858C712.041 217.226 710.997 220.118 708.91 222.534C706.902 224.877 704.213 226.707 700.841 228.025C697.549 229.269 693.896 229.892 689.881 229.892C687.713 229.892 685.746 229.709 683.98 229.342C682.214 228.976 680.648 228.501 679.283 227.915C678.239 227.402 677.276 226.926 676.393 226.487C675.59 226.048 674.747 225.682 673.864 225.389C673.061 225.023 672.338 225.169 671.696 225.828C671.134 226.487 670.692 227.585 670.371 229.123H667.721C667.882 226.78 668.003 223.925 668.083 220.557C668.163 217.189 668.203 212.723 668.203 207.159H670.853C671.415 211.186 672.258 214.737 673.382 217.811C674.586 220.813 676.312 223.193 678.56 224.95C680.809 226.634 683.699 227.476 687.232 227.476C688.757 227.476 690.202 227.183 691.567 226.597C693.012 226.011 694.177 225.096 695.06 223.852C696.023 222.607 696.505 220.923 696.505 218.8C696.505 215.579 695.301 212.906 692.892 210.783C690.483 208.66 687.472 206.39 683.859 203.974C681.13 202.144 678.56 200.35 676.152 198.593C673.823 196.836 671.896 194.859 670.371 192.663C668.926 190.467 668.203 187.868 668.203 184.866C668.203 181.571 669.127 178.863 670.973 176.739C672.82 174.543 675.229 172.896 678.199 171.798C681.25 170.626 684.502 170.04 687.954 170.04Z" fill="#3D3A35"/>
</svg>
