<?xml version="1.0" encoding="UTF-8" standalone="no"?>
<!DOCTYPE svg PUBLIC "-//W3C//DTD SVG 1.1//EN" "http://www.w3.org/Graphics/SVG/1.1/DTD/svg11.dtd">
<svg width="100%" height="100%" viewBox="0 0 512 512" version="1.1" xmlns="http://www.w3.org/2000/svg" xmlns:xlink="http://www.w3.org/1999/xlink" xml:space="preserve" xmlns:serif="http://www.serif.com/" style="fill-rule:evenodd;clip-rule:evenodd;stroke-linejoin:round;stroke-miterlimit:2;">
    <g transform="matrix(1.10639,0,0,1.09328,-160.103,-153.236)">
        <path d="M176,368C169.669,368 163.331,367.915 157,368.004C153.569,368.052 149.998,368.244 147.742,371.228C145.01,374.844 146,380.754 146,385L146,587C146,592.251 144.424,600.627 149.228,604.258C152.214,606.514 156.487,605.999 160,606L487,606C523.43,606 560.649,608.234 597,605.956C605.97,605.394 606,598.21 606,591L606,385C606,380.754 606.99,374.844 604.258,371.228C602.002,368.244 598.431,368.052 595,368.004C588.669,367.915 582.331,368 576,368C576,341.342 579.879,313.035 566.127,289C561.025,280.083 553.514,272.106 545,266.36C540.808,263.53 533.076,261.58 532.148,255.957C530.79,247.726 532,238.342 532,230L532,177L531.999,158C531.982,154.66 532.116,150.984 529.566,148.434C526.194,145.062 520.331,146 516,146C505.334,146 494.666,145.945 484,146.001C479.573,146.024 474.498,146.226 472.603,151.044C471.332,154.275 472,158.594 472,162L472,260C463.755,261.471 456.005,267.463 450.004,273.09C423.001,298.413 427,334.34 427,368L413,368L413,198C413,190.238 414.041,181.606 412.32,174C408.818,158.521 394.65,147.232 379,146.09C360.434,144.735 341.274,157.676 339.174,177C336.909,197.839 339,220.031 339,241L339,368L325,368C325,333.829 329.132,296.023 300,271.439C294.271,266.605 287.511,261.355 280,260L280,162C280,158.594 280.668,154.275 279.397,151.044C277.502,146.226 272.427,146.024 268,146.001C257.334,145.945 246.666,146 236,146C231.669,146 225.806,145.062 222.434,148.434C219.884,150.984 220.018,154.66 220.001,158L220,177L220,230C220,238.342 221.21,247.726 219.852,255.957C218.892,261.776 210.318,264.012 206,267.042C197.41,273.071 190.464,280.92 185.231,290C171.804,313.301 176,342.167 176,368Z" style="fill:rgb(135,131,125);fill-rule:nonzero;"/>
    </g>
    <g transform="matrix(1.08489,0,0,1.07332,-152.059,-145.257)">
        <path d="M236,162L236,176L265,176L265,162L236,162M371,162.529C350.312,167.31 354,192.119 354,208L354,383C354,398.629 351.023,424.744 373,426.895C375.58,427.148 378.46,427.162 381,426.61C401.781,422.09 398,396.791 398,381L398,205C398,189.294 400.514,164.839 379,162.185C376.381,161.862 373.575,161.934 371,162.529M487,162L487,176L516,176L516,162L487,162M236,191L236,235L265,235L265,191L236,191M487,191L487,235L516,235L516,191L487,191M236,251C236,256.424 237.415,264.219 234.258,268.945C230.985,273.845 223.811,275.079 219,278.066C208.141,284.806 197.32,295.984 195,309L306,309C303.031,296.502 293.628,285.579 283,278.699C278.183,275.581 269.189,273.887 266.179,268.787C263.485,264.222 265,256.134 265,251L236,251M487,251C487,256.146 488.534,264.281 485.972,268.895C482.882,274.46 473.117,276.309 468,279.749C457.457,286.838 450.075,297.033 446,309L558,309C553.949,297.104 546.49,286.591 536,279.52C530.637,275.905 521.477,274.292 517.742,268.892C514.545,264.27 516,256.35 516,251L487,251M192,325L192,368L309,368L309,325L192,325M443,325L443,368L560,368L560,325L443,325M162,384L162,590L220,590L220,384L162,384M236,384L236,590L294,590L294,384L236,384M310,384L310,590L368,590L368,442C354.533,438.801 342.465,427.813 339.518,414C337.512,404.597 339,393.595 339,384L310,384M413,384C413,404.686 415.241,425.034 395,437.532C391.555,439.658 387.918,441.069 384,442L384,590L442,590L442,384L413,384M458,384L458,590L516,590L516,384L458,384M532,384L532,590L590,590L590,384L532,384Z" style="fill:rgb(235,233,233);fill-rule:nonzero;stroke:rgb(135,131,125);stroke-width:14.42px;"/>
    </g>
    <g transform="matrix(1.10639,0,0,1.09328,-160.103,-153.236)">
        <rect x="368" y="398" width="16" height="15" style="fill:rgb(135,131,125);fill-rule:nonzero;"/>
    </g>
</svg>
