<!DOCTYPE svg PUBLIC "-//W3C//DTD SVG 1.1//EN" "http://www.w3.org/Graphics/SVG/1.1/DTD/svg11.dtd">
<!-- Uploaded to: SVG Repo, www.svgrepo.com, Transformed by: SVG Repo Mixer Tools -->
<svg fill="#000000" width="64px" height="64px" viewBox="-4.8 -4.8 57.60 57.60" style="fill-rule:evenodd;clip-rule:evenodd;stroke-linejoin:round;stroke-miterlimit:1.41421;" version="1.1" xml:space="preserve" xmlns="http://www.w3.org/2000/svg" xmlns:serif="http://www.serif.com/" xmlns:xlink="http://www.w3.org/1999/xlink">
<g id="SVGRepo_bgCarrier" stroke-width="0"/>
<g id="SVGRepo_iconCarrier"> <g id="dashboard_overview"> <g id="window"> <path d="M4.292,35.693L4.292,12.764C4.292,11.093 5.648,9.738 7.319,9.738L41.968,9.738C43.636,9.738 44.996,11.091 44.996,12.764L44.996,35.693C44.996,37.363 43.639,38.719 41.968,38.719L7.319,38.719C5.648,38.719 4.292,37.363 4.292,35.693ZM43.081,35.693L43.081,33.27L6.207,33.27L6.207,35.693C6.207,36.305 6.706,36.803 7.319,36.803L41.968,36.803C42.58,36.803 43.081,36.305 43.081,35.693ZM7.856,32.207L7.856,16.399C7.856,16.107 8.094,15.866 8.388,15.866L40.898,15.866C41.189,15.866 41.429,16.107 41.429,16.399L41.429,32.207L43.081,32.207L43.081,12.764C43.081,12.153 42.584,11.653 41.968,11.653L7.319,11.653C6.706,11.653 6.207,12.151 6.207,12.764L6.207,32.207L7.856,32.207ZM40.366,32.101L40.366,16.93L8.921,16.93L8.921,32.101L40.366,32.101Z" id="window1"/> <path d="M7.796,13.576C7.796,13.07 8.209,12.657 8.716,12.657C9.223,12.657 9.634,13.07 9.634,13.576C9.634,14.081 9.223,14.493 8.716,14.493C8.209,14.493 7.796,14.081 7.796,13.576ZM10.398,13.576C10.398,13.07 10.809,12.657 11.315,12.657C11.822,12.657 12.234,13.07 12.234,13.576C12.234,14.081 11.822,14.493 11.315,14.493C10.809,14.493 10.398,14.081 10.398,13.576ZM12.996,13.576C12.996,13.07 13.408,12.657 13.913,12.657C14.419,12.657 14.832,13.07 14.832,13.576C14.832,14.081 14.419,14.493 13.913,14.493C13.408,14.493 12.996,14.081 12.996,13.576Z" id="window-actions"/> </g> <g id="gauge"> <g id="inner-gauge"> <path d="M24.246,29.91L24.246,26.326C24.246,26.033 24.484,25.793 24.779,25.793C25.07,25.793 25.311,26.033 25.311,26.326L25.311,29.91C25.311,30.205 25.07,30.443 24.779,30.443C24.484,30.443 24.246,30.205 24.246,29.91Z" id="pointer"/> <path d="M24.781,28.47C23.948,28.47 23.272,29.147 23.272,29.979C23.272,30.811 23.948,31.487 24.781,31.487C25.612,31.487 26.289,30.811 26.289,29.979C26.289,29.147 25.612,28.47 24.781,28.47Z" id="center"/> <path d="M29.902,30.443L29.844,29.381L32.056,29.262L32.112,30.324L29.902,30.443ZM19.661,30.435L17.45,30.33L17.499,29.268L19.71,29.372L19.661,30.435ZM29.469,27.791L28.917,26.882L30.811,25.731L31.362,26.64L29.469,27.791ZM20.078,27.787L18.188,26.629L18.744,25.721L20.633,26.878L20.078,27.787ZM27.754,25.714L26.844,25.163L27.996,23.269L28.904,23.821L27.754,25.714ZM21.801,25.712L20.65,23.819L21.559,23.267L22.71,25.161L21.801,25.712ZM24.308,24.789L24.189,22.578L25.251,22.52L25.37,24.732L24.308,24.789Z" id="dots"/> </g> <path d="M24.785,18.339C31.313,18.339 36.608,23.64 36.608,30.164L35.544,30.164C35.544,24.225 30.724,19.403 24.785,19.403C18.842,19.403 14.021,24.227 14.021,30.164L12.958,30.164C12.958,23.637 18.252,18.339 24.785,18.339ZM24.785,20.465C30.141,20.465 34.484,24.81 34.484,30.164L33.42,30.164C33.42,25.399 29.551,21.529 24.785,21.529C20.016,21.529 16.147,25.399 16.147,30.164L15.084,30.164C15.084,24.81 19.427,20.465 24.785,20.465Z" id="outter"/> </g> <path d="M10.345,30.421L10.345,29.262L11.504,29.262L11.504,30.421L10.345,30.421ZM38.067,30.421L38.067,29.262L39.228,29.262L39.228,30.421L38.067,30.421ZM10.345,28.57L10.345,27.413L11.502,27.413L11.502,28.57L10.345,28.57ZM38.069,28.57L38.069,27.413L39.228,27.413L39.228,28.57L38.069,28.57ZM10.345,26.718L10.345,25.561L11.502,25.561L11.502,26.718L10.345,26.718ZM38.069,26.718L38.069,25.561L39.228,25.561L39.228,26.718L38.069,26.718ZM10.345,24.869L10.345,23.71L11.502,23.71L11.502,24.869L10.345,24.869ZM38.069,24.869L38.069,23.71L39.228,23.71L39.228,24.869L38.069,24.869ZM10.343,23.019L10.343,21.86L11.502,21.86L11.502,23.019L10.343,23.019ZM12.328,23.019L12.328,21.86L13.486,21.86L13.486,23.019L12.328,23.019ZM36.087,23.019L36.087,21.86L37.244,21.86L37.244,23.019L36.087,23.019ZM38.069,23.019L38.069,21.86L39.23,21.86L39.23,23.019L38.069,23.019ZM10.345,21.072L10.345,19.911L11.504,19.911L11.504,21.072L10.345,21.072ZM12.33,21.072L12.33,19.911L13.488,19.911L13.488,21.072L12.33,21.072ZM14.313,21.072L14.313,19.911L15.471,19.911L15.471,21.072L14.313,21.072ZM34.1,21.072L34.1,19.911L35.258,19.911L35.258,21.072L34.1,21.072ZM36.085,21.072L36.085,19.911L37.242,19.911L37.242,21.072L36.085,21.072ZM38.067,21.072L38.067,19.911L39.228,19.911L39.228,21.072L38.067,21.072ZM10.345,19.22L10.345,18.062L11.504,18.062L11.504,19.22L10.345,19.22ZM12.33,19.22L12.33,18.062L13.488,18.062L13.488,19.22L12.33,19.22ZM14.313,19.22L14.313,18.062L15.471,18.062L15.471,19.22L14.313,19.22ZM16.294,19.22L16.294,18.062L17.454,18.062L17.454,19.22L16.294,19.22ZM32.118,19.22L32.118,18.062L33.278,18.062L33.278,19.22L32.118,19.22ZM34.1,19.22L34.1,18.062L35.258,18.062L35.258,19.22L34.1,19.22ZM36.085,19.22L36.085,18.062L37.242,18.062L37.242,19.22L36.085,19.22ZM38.067,19.22L38.067,18.062L39.228,18.062L39.228,19.22L38.067,19.22Z" id="grid"/> </g> </g>
</svg>