<!DOCTYPE svg PUBLIC "-//W3C//DTD SVG 1.1//EN" "http://www.w3.org/Graphics/SVG/1.1/DTD/svg11.dtd">
<!-- Uploaded to: SVG Repo, www.svgrepo.com, Transformed by: SVG Repo Mixer Tools -->
<svg fill="#000000" width="64px" height="64px" viewBox="0 0 512 512" version="1.1" xml:space="preserve" xmlns="http://www.w3.org/2000/svg" xmlns:xlink="http://www.w3.org/1999/xlink">
<g id="SVGRepo_bgCarrier" stroke-width="0"/>
<g id="SVGRepo_iconCarrier"> <g id="_x39_77_x2C__sun_x2C__day_x2C__light"> <g id="XMLID_771_"> <path d="M255.068,143.233c-61.666,0-111.835,50.169-111.835,111.835s50.169,111.835,111.835,111.835 c61.665,0,111.835-50.169,111.835-111.835S316.733,143.233,255.068,143.233z M256,325.897c-19.585,0-38.397-8.297-51.614-22.765 c-1.735-1.898-1.603-4.847,0.297-6.582c1.9-1.735,4.848-1.604,6.584,0.297c11.455,12.538,27.761,19.729,44.733,19.729 c2.574,0,4.66,2.086,4.66,4.66S258.574,325.897,256,325.897z M256,195.423c-33.402,0-60.577,27.175-60.577,60.577 c0,2.574-2.086,4.66-4.659,4.66c-2.574,0-4.66-2.086-4.66-4.66c0-38.541,31.355-69.896,69.896-69.896 c2.574,0,4.66,2.086,4.66,4.659S258.574,195.423,256,195.423z" id="XMLID_772_"/> <path d="M457.433,242.839l-32.233-5.036c-9.047-1.413-16.289-8.031-18.45-16.859 c-0.76-3.101-1.641-6.313-2.62-9.547c-2.697-8.912,0.282-18.421,7.593-24.226l25.523-20.268 c5.155-4.095,6.531-11.465,3.202-17.144l-0.179-0.306c-2.378-4.056-6.777-6.576-11.48-6.576c-1.679,0-3.326,0.316-4.898,0.94 l-30.235,11.993c-2.676,1.062-5.491,1.601-8.365,1.601c-6.225,0.001-12.217-2.594-16.438-7.118 c-2.289-2.453-4.692-4.856-7.145-7.145c-6.809-6.354-8.975-16.09-5.518-24.803l11.994-30.236 c2.438-6.146,0.067-13.036-5.638-16.38l-0.301-0.176c-2.043-1.198-4.365-1.83-6.72-1.83c-4.088,0-7.889,1.834-10.428,5.03 l-20.282,25.542c-4.32,5.44-10.771,8.561-17.7,8.561c-2.169,0-4.325-0.314-6.408-0.935c-3.114-0.928-6.183-1.741-9.121-2.418 c-9.162-2.109-16.005-9.415-17.432-18.612l-5.009-32.311c-1.012-6.526-6.54-11.264-13.145-11.264s-12.132,4.737-13.145,11.264 l-5.009,32.311c-1.425,9.196-8.268,16.503-17.431,18.612c-2.936,0.676-6.004,1.49-9.121,2.418 c-2.083,0.62-4.239,0.935-6.408,0.935c-6.928,0.001-13.38-3.12-17.701-8.561l-20.282-25.542c-2.539-3.196-6.34-5.03-10.427-5.03 c-2.354,0-4.677,0.632-6.716,1.827l-0.31,0.181c-5.701,3.343-8.071,10.231-5.633,16.378l11.994,30.235 c3.403,8.579,1.187,18.547-5.518,24.804c-2.453,2.288-4.856,4.691-7.145,7.144c-4.223,4.524-10.214,7.119-16.438,7.119 c-2.874,0-5.688-0.538-8.365-1.6l-30.235-11.995c-1.571-0.623-3.22-0.939-4.898-0.939c-4.704,0-9.104,2.521-11.481,6.577 l-0.179,0.304c-3.329,5.68-1.952,13.05,3.203,17.145l25.541,20.282c7.273,5.775,10.268,15.238,7.627,24.108 c-0.927,3.11-1.74,6.179-2.418,9.121c-2.11,9.164-9.416,16.006-18.612,17.431l-32.312,5.01 c-6.526,1.013-11.263,6.54-11.263,13.145v0.348c0,6.548,4.885,12.206,11.363,13.16l32.126,4.731 c9.242,1.361,16.585,8.185,18.706,17.383c0.672,2.917,1.482,5.974,2.409,9.083c2.641,8.871-0.353,18.334-7.627,24.109 l-25.541,20.283c-5.156,4.094-6.533,11.464-3.203,17.143l0.181,0.309c2.376,4.053,6.774,6.573,11.479,6.573 c1.679,0,3.327-0.315,4.898-0.939l30.235-11.994c2.677-1.063,5.491-1.6,8.365-1.6c6.225,0,12.216,2.594,16.438,7.117 c2.289,2.453,4.692,4.856,7.145,7.144c6.705,6.258,8.923,16.226,5.519,24.805l-11.995,30.235 c-2.438,6.147-0.067,13.035,5.638,16.38l0.302,0.177c2.043,1.197,4.365,1.829,6.72,1.829c4.088,0,7.888-1.833,10.427-5.03 l20.269-25.523c4.319-5.438,10.772-8.559,17.704-8.559c2.209,0,4.402,0.325,6.521,0.967c3.236,0.979,6.448,1.861,9.547,2.619 c8.829,2.161,15.446,9.403,16.859,18.45l5.037,32.235c1.019,6.516,6.546,11.247,13.143,11.247h0.037 c6.597,0,12.123-4.73,13.141-11.247l5.037-32.235c1.413-9.047,8.031-16.289,16.86-18.45c3.097-0.758,6.309-1.64,9.546-2.619 c2.118-0.642,4.313-0.967,6.521-0.967c6.932,0,13.384,3.12,17.703,8.559l20.27,25.523c2.538,3.197,6.339,5.03,10.426,5.03 c2.354,0,4.678-0.632,6.716-1.828l0.31-0.18c5.701-3.342,8.072-10.23,5.634-16.378l-11.994-30.235 c-3.403-8.58-1.187-18.547,5.518-24.804c2.453-2.288,4.856-4.691,7.144-7.145c4.223-4.523,10.214-7.117,16.438-7.117 c2.874,0,5.689,0.537,8.366,1.6l30.235,11.994c1.572,0.624,3.22,0.939,4.899,0.939c4.703,0,9.102-2.521,11.48-6.576l0.176-0.302 c3.332-5.683,1.955-13.053-3.2-17.146l-25.523-20.269c-7.311-5.806-10.291-15.314-7.593-24.225c0.98-3.237,1.861-6.449,2.62-9.547 c2.161-8.829,9.403-15.447,18.45-16.86l32.234-5.037c6.518-1.018,11.247-6.545,11.247-13.142 C468.681,249.385,463.95,243.858,457.433,242.839z M255.068,376.223c-66.805,0-121.154-54.35-121.154-121.154 s54.35-121.154,121.154-121.154s121.154,54.35,121.154,121.154S321.873,376.223,255.068,376.223z" id="XMLID_776_"/> </g> </g> <g id="Layer_1"/> </g>
</svg>