<?xml version="1.0" encoding="UTF-8" standalone="no"?>
<!DOCTYPE svg PUBLIC "-//W3C//DTD SVG 1.1//EN" "http://www.w3.org/Graphics/SVG/1.1/DTD/svg11.dtd">
<svg width="100%" height="100%" viewBox="0 0 512 512" version="1.1" xmlns="http://www.w3.org/2000/svg" xmlns:xlink="http://www.w3.org/1999/xlink" xml:space="preserve" xmlns:serif="http://www.serif.com/" style="fill-rule:evenodd;clip-rule:evenodd;stroke-linejoin:round;stroke-miterlimit:2;">
    <g transform="matrix(9.59012,0,0,9.59012,-2199.07,-2199.08)">
        <g id="Subtract" transform="matrix(1,0,0,1,224,224)">
            <path d="M22.133,10.556C14.383,10.556 8.111,16.865 8.111,24.645C8.111,32.977 11.976,39.556 16.591,44.284C21.182,48.988 26.615,51.969 30.076,53.153C30.686,53.366 31.384,53.445 32,53.445C32.616,53.445 33.314,53.366 33.924,53.153C37.386,51.969 42.818,48.988 47.409,44.284C52.024,39.556 55.889,32.977 55.889,24.645C55.889,16.865 49.617,10.556 41.867,10.556C38.027,10.556 34.53,12.124 32.001,14.655C29.477,12.125 25.993,10.556 22.133,10.556ZM50.257,30.212C50.532,29.333 50.044,28.398 49.166,28.122C48.823,28.015 48.471,28.024 48.153,28.127C47.657,28.288 47.244,28.678 47.076,29.214C45.433,34.452 42.021,38.685 38.321,41.844C37.62,42.441 37.537,43.493 38.135,44.193C38.733,44.893 39.784,44.976 40.485,44.379C44.508,40.945 48.373,36.216 50.257,30.212Z" style="fill:none;stroke:rgb(135,131,125);stroke-width:0.87px;"/>
        </g>
        <g id="Subtract1" serif:id="Subtract" transform="matrix(1,0,0,1,224,224)">
            <path d="M22.133,8.056C13.004,8.056 5.611,15.482 5.611,24.645C5.611,33.711 9.781,40.886 14.801,46.03C19.721,51.07 25.554,54.248 29.265,55.517C30.133,55.819 31.123,55.945 32,55.945C32.877,55.945 33.867,55.819 34.735,55.517C38.446,54.248 44.279,51.07 49.198,46.03C54.219,40.886 58.389,33.711 58.389,24.645C58.389,15.482 50.996,8.056 41.867,8.056C38.178,8.056 34.756,9.282 32.002,11.351C29.255,9.283 25.841,8.056 22.133,8.056ZM22.133,10.556C14.383,10.556 8.111,16.865 8.111,24.645C8.111,32.977 11.976,39.556 16.591,44.284C21.182,48.988 26.615,51.969 30.076,53.153C30.686,53.366 31.384,53.445 32,53.445C32.616,53.445 33.314,53.366 33.924,53.153C37.386,51.969 42.818,48.988 47.409,44.284C52.024,39.556 55.889,32.977 55.889,24.645C55.889,16.865 49.617,10.556 41.867,10.556C38.027,10.556 34.53,12.124 32.001,14.655C29.477,12.125 25.993,10.556 22.133,10.556Z" style="fill:rgb(135,131,125);"/>
        </g>
    </g>
</svg>
