<svg xmlns="http://www.w3.org/2000/svg" preserveAspectRatio="xMinYMin" viewBox="0 0 1475 802"><path d="M334 49c-18 12-38 27-54 44-29 31-58 64-82 98a477 477 0 0 0-84 179c-12 53-11 107 2 158 18 75 76 138 134 189 45 39 106 66 160 85l5-15c-53-19-109-44-152-82a417 417 0 0 1-130-181c-14-44-17-92-10-138A528 528 0 0 1 338 52z" color="#000" style="block-progression:tb;text-indent:0;text-transform:none"/><path d="M311 757s-37-12-67-8c-48 5-52 35-52 35s19 11 60 7c48-5 59-34 59-34zm-64-44s-32-15-62-15c-52 1-55 28-55 28s19 14 61 13c48 0 56-26 56-26zm-47-46s-30-27-60-34c-50-13-67 17-67 17s19 22 59 32c47 12 68-15 68-15zm-54-71s-26-28-61-38c-46-15-68 13-68 14 0 0 19 24 58 34 53 14 71-10 71-10zm-25-57s-24-37-60-54c-35-17-60-2-61-2 0 0 18 33 51 48 44 22 70 8 70 8zm-8-50c-13-12-14-45-32-71a80 80 0 0 0-69-34s5 46 37 74c34 30 64 31 64 31zm-4-78s2-40-9-70a78 78 0 0 0-56-51s-6 45 17 81c25 37 48 40 48 40zm18-75s8-34 3-66c-6-48-43-58-44-58 0 0-13 44 5 83 20 40 36 41 36 41zm33-81s13-30 11-63c-2-44-33-63-33-63s-30 26-13 83c10 34 35 43 35 43zm42-66s19-30 25-62c5-30-8-63-10-66 0 0-32 14-31 68 1 36 16 60 16 60zm51-65s24-24 30-58c5-28 0-58-6-66 0 0-30 19-32 66-2 36 6 53 8 58zm38-39s44 2 66-11c25-14 49-45 51-54 0 0-39-17-75 14-27 23-40 46-42 51zm-49 53s21-24 58-31c28-5 49 0 63 8 0 0-21 27-62 31-36 3-53-5-59-8zm-43 58s20-24 56-31c28-5 42 0 55 9 0 0-17 26-58 29-35 4-48-5-53-7zm-43 74s19-29 53-44c35-14 53-7 68-2-5 7-25 37-56 46-35 10-59 1-65 0zm-25 66s17-30 50-47 52-12 67-7c-4 7-22 39-53 50-33 12-58 5-64 4zm-13 79c14-19 22-39 44-58 28-25 51-17 67-16-8 15-20 38-44 56-29 21-61 17-67 18zm2 72c12-20 18-36 38-58 24-27 47-22 63-22-6 15-16 38-39 59-26 24-57 20-62 21zm15 58c19-29 17-35 35-59 19-25 43-24 59-26-4 16-12 38-32 59-22 23-45 20-62 26zm31 56c11-25 9-41 20-58 17-30 35-31 50-32-12 36-9 36-23 58s-32 25-47 32zm36 48c7-27 0-35 7-55 12-32 28-36 44-41-2 22 1 35-11 59-9 16-27 27-40 37zm74-53s13 26 9 55c-6 43-29 49-29 49s-13-19-12-58c2-42 32-46 32-46zm48 43s13 26 10 56c-3 38-24 48-24 48s-14-22-14-54c-1-49 28-50 28-50z"/><path d="M1141 49c18 12 38 27 55 44a642 642 0 0 1 132 182 396 396 0 0 1 32 253c-19 75-77 138-135 189-45 39-106 66-159 85l-6-15a431 431 0 0 0 283-263c13-44 16-92 9-138a528 528 0 0 0-214-334z" color="#000" style="block-progression:tb;text-indent:0;text-transform:none"/><path d="M1164 757s38-12 68-8c47 5 51 35 51 35s-19 11-59 7c-48-5-60-34-60-34zm64-44s32-15 62-15c52 1 55 28 55 28s-19 14-60 13c-48 0-57-26-57-26zm48-46s30-27 59-34c51-13 67 17 67 17s-19 22-59 32c-47 12-67-15-67-15zm53-71s26-28 61-38c46-15 68 13 69 14 0 0-19 24-59 34-52 14-71-10-71-10zm26-57s24-37 60-54c34-17 60-2 60-2s-17 33-50 48c-45 22-70 8-70 8zm7-50c13-12 14-45 32-71 26-37 68-35 69-34 0 0-5 46-37 74-34 30-64 31-64 31zm4-78s-1-40 9-70c15-43 55-51 56-51 0 0 7 45-17 81-25 37-48 40-48 40zm-17-75s-8-34-4-66c6-48 44-58 44-58s13 44-5 83c-20 40-35 41-35 41zm-33-81s-13-30-12-63c3-44 33-63 34-63 0 0 29 26 12 83-10 34-34 43-34 43zm-42-66s-20-30-25-62c-5-30 7-63 10-66 0 0 31 14 30 68-1 36-15 60-15 60zm-52-65s-23-24-29-58c-5-28 0-58 5-66 0 0 30 19 32 66 2 36-6 53-8 58zm-38-39s-44 2-66-11c-24-14-48-45-50-54 0 0 38-17 74 14 28 23 40 46 42 51zm49 53s-21-24-57-31c-28-5-50 0-64 8 0 0 22 27 62 31 36 3 54-5 59-8zm44 58s-20-24-57-31c-28-5-41 0-55 9 0 0 17 26 58 29 36 4 48-5 54-7zm42 74s-19-29-53-44c-34-14-52-7-67-2 4 7 24 37 56 46 34 10 59 1 64 0zm25 66s-16-30-49-47c-34-17-52-12-68-7 5 7 22 39 53 50 34 12 59 5 64 4zm14 79c-15-19-23-39-45-58-27-25-51-17-67-16 8 15 20 38 44 56 29 21 62 17 67 18zm-2 72c-12-20-18-36-38-58-25-27-48-22-64-22 6 15 17 38 39 59 27 24 57 20 63 21zm-16 58c-18-29-16-35-34-59-20-25-44-24-60-26 5 16 12 38 33 59 22 23 45 20 61 26zm-30 56c-12-25-10-41-21-58-17-30-34-31-50-32 13 36 10 36 24 58 13 22 32 25 47 32zm-37 48c-7-27 0-35-7-55-11-32-28-36-43-41 1 22-1 35 11 59 8 16 26 27 39 37zm-73-53s-14 26-9 55c6 43 28 49 28 49s13-19 12-58c-1-42-32-46-32-46zm-48 43s-14 26-11 56c4 38 25 48 25 48s13-22 14-54c1-49-28-50-28-50z"/></svg>