<svg xmlns="http://www.w3.org/2000/svg" xml:space="preserve" fill-rule="evenodd" stroke-linecap="round" stroke-linejoin="round" stroke-miterlimit="1.5" clip-rule="evenodd" viewBox="0 0 550 550"><circle cx="98.86" cy="96.55" r="46.64" fill="none" stroke="#bfbfbf" stroke-width="1.01" transform="matrix(5.77 0 0 5.77 -296.94 -282)"/><circle cx="98.86" cy="96.55" r="46.64" fill="none" stroke="#bfbfbf" stroke-width=".68" transform="matrix(4.03 0 0 4.03 -124.79 -113.88)"/><path fill="#e3e2de" fill-rule="nonzero" stroke="#3d3a35" stroke-linecap="butt" stroke-miterlimit="2" stroke-width=".99" d="M316.91 171.9c5.22.1 10.39.54 15.51 1.31a93.36 93.36 0 0 1 29.5 9.44 80.25 80.25 0 0 1 15.05 10.03 71.2 71.2 0 0 1 9.5 9.4 59.67 59.67 0 0 1 9.38 15.68 92.73 92.73 0 0 1 7.01 31.15c.46 8.75-.1 17.3-1.67 25.67a124.31 124.31 0 0 1-11.1 33.16 125.27 125.27 0 0 1-19.76 28.81 106 106 0 0 1-12.7 11.78 140.65 140.65 0 0 1-31.55 18.8 124.76 124.76 0 0 1-48.9 10.2 90.83 90.83 0 0 1-19.96-2.74 354.1 354.1 0 0 0-21.27-4.7 31.56 31.56 0 0 0-12.27-.02 155.38 155.38 0 0 0-15.02 4.05 103.92 103.92 0 0 1-31.88 5.2 44.88 44.88 0 0 1-20.53-4.65 19.02 19.02 0 0 1-3.79-2.41c-2.5-1.8-4.5-4.01-5.95-6.64-.8-1.46-1.3-3.06-1.5-4.8a10.2 10.2 0 0 1 1.3-6.86 21.4 21.4 0 0 1 9.72-8.58 48.9 48.9 0 0 1 9.44-3.24c4.16-.9 8.65-1.36 13.47-1.38 4.17-.01 8.2.48 12.1 1.48 4.23 1.1 8.4 2.15 12.48 3.14 3.77.93 7.57 1.52 11.41 1.77 4.85.36 9.57-.32 14.15-2.02a.52.52 0 0 0 .28-.24 11033.6 11033.6 0 0 1 44.95-77.41 269.33 269.33 0 0 1 20.3-29.85c2.9-3.77 6.06-7.36 9.5-10.77a96.81 96.81 0 0 1 27.23-18.88 90.16 90.16 0 0 1 17.75-5.95c3.3-.58 6.3-.13 9 1.37 1.05.59 1.62 1.37 1.7 2.34.12 1.09-.31 1.96-1.3 2.63a10.2 10.2 0 0 1-4.4 1.67l-.4.08c-5 1.47-9.58 4.15-13.74 8.04a72.04 72.04 0 0 0-10.33 12.06 423.85 423.85 0 0 0-18.2 31.8 29834.9 29834.9 0 0 0-17.1 33.14 304.8 304.8 0 0 1-9.05 16.32 158.6 158.6 0 0 1-19.82 26.5 3348.3 3348.3 0 0 1-14.3 15.4c-.07.06-.06.12.02.16 5.98 3 12.1 5.43 18.34 7.28a73.2 73.2 0 0 0 24.78 3.15 57.31 57.31 0 0 0 32.63-12.02 88.86 88.86 0 0 0 20.1-21.3 165.7 165.7 0 0 0 13.43-24.23 173.34 173.34 0 0 0 11.78-35.48 121.33 121.33 0 0 0 3.49-27.24 79.11 79.11 0 0 0-5.04-29.58 42.7 42.7 0 0 0-8.06-13.27 52.3 52.3 0 0 0-23.17-15.2 75.04 75.04 0 0 0-24.4-3.6c-3.92.04-7.96.3-12.13.75a133.8 133.8 0 0 0-22.7 4.75 108.19 108.19 0 0 0-17.91 7.25 103.03 103.03 0 0 0-25.08 17.11 87.83 87.83 0 0 0-12 13.48 91.69 91.69 0 0 0-9.34 15.83 65.9 65.9 0 0 0-5.19 16.84c-.38 2.5-.55 4.8-.49 6.88a27.5 27.5 0 0 0 2.58 11.58 17.9 17.9 0 0 0 5.41 6.89c4.2 3.1 9.14 4.54 14.83 4.35 4.4-.15 8.45-1.24 12.17-3.27a82.62 82.62 0 0 0 7.67-4.82 7.57 7.57 0 0 1 5.53-1.45c1.31.24 2 1.02 2.06 2.36a6.03 6.03 0 0 1-1 3.32 28.68 28.68 0 0 1-6.98 7.28 99.04 99.04 0 0 1-15.89 9.19 50.45 50.45 0 0 1-17.92 4.99 31.54 31.54 0 0 1-17.68-3.37 22.77 22.77 0 0 1-7-5.38 33.18 33.18 0 0 1-6.8-12.2 42.35 42.35 0 0 1-1.86-12.49c0-7.5 1.23-14.75 3.71-21.75a97.37 97.37 0 0 1 18.69-31.77 121.92 121.92 0 0 1 18.39-17.1 141.76 141.76 0 0 1 32.25-18.1 159.1 159.1 0 0 1 38.18-10c6.36-.85 13.15-1.21 20.36-1.1ZM165.64 364.98a18.4 18.4 0 0 0 7.7 3.42c2.49.62 5.18.88 8.06.79a45.89 45.89 0 0 0 14.77-2.93 100.2 100.2 0 0 0 11.47-4.84c.16-.07.15-.14-.01-.2a187.1 187.1 0 0 1-13.35-5.3 43.9 43.9 0 0 0-21.93-3.55 14 14 0 0 0-6.76 2.39 6.2 6.2 0 0 0-2.46 5.01 6.03 6.03 0 0 0 2.5 5.21Z"/><text fill="#bfbfbf" stroke="#fff" stroke-linecap="butt" stroke-miterlimit="2" stroke-width=".18" font-family="&quot;CopperplateGothic-Bold&quot;,&quot;Copperplate Gothic Bold&quot;,sans-serif" font-size="7.08" transform="matrix(2.36 -4.99 4.86 2.36 67.86 198.69)">L</text><text fill="#bfbfbf" stroke="#fff" stroke-linecap="butt" stroke-miterlimit="2" stroke-width=".18" font-family="&quot;CopperplateGothic-Bold&quot;,&quot;Copperplate Gothic Bold&quot;,sans-serif" font-size="7.08" transform="matrix(3.23 -4.46 4.33 3.25 84.59 165.27)">a</text><text fill="#bfbfbf" stroke="#fff" stroke-linecap="butt" stroke-miterlimit="2" stroke-width=".19" font-family="&quot;CopperplateGothic-Bold&quot;,&quot;Copperplate Gothic Bold&quot;,sans-serif" font-size="7.08" transform="matrix(4.19 -3.53 3.4 4.24 113.52 128.78)">D</text><text fill="#bfbfbf" stroke="#fff" stroke-linecap="butt" stroke-miterlimit="2" stroke-width=".19" font-family="&quot;CopperplateGothic-Bold&quot;,&quot;Copperplate Gothic Bold&quot;,sans-serif" font-size="7.08" transform="matrix(4.65 -2.86 2.75 4.72 146.64 102.83)">i</text><text fill="#bfbfbf" stroke="#fff" stroke-linecap="butt" stroke-miterlimit="2" stroke-width=".19" font-family="&quot;CopperplateGothic-Bold&quot;,&quot;Copperplate Gothic Bold&quot;,sans-serif" font-size="7.08" transform="matrix(4.97 -2.2 2.1 5.06 164.52 91.96)">o</text><text fill="#bfbfbf" stroke="#fff" stroke-linecap="butt" stroke-miterlimit="2" stroke-width=".18" font-family="&quot;CopperplateGothic-Bold&quot;,&quot;Copperplate Gothic Bold&quot;,sans-serif" font-size="7.08" transform="matrix(5.26 -1.32 1.23 5.36 198.75 77.65)">n</text><text fill="#bfbfbf" stroke="#fff" stroke-linecap="butt" stroke-miterlimit="2" stroke-width=".18" font-family="&quot;CopperplateGothic-Bold&quot;,&quot;Copperplate Gothic Bold&quot;,sans-serif" font-size="7.08" transform="matrix(5.37 -.62 .55 5.48 235.94 69.56)">i</text><text fill="#bfbfbf" stroke="#fff" stroke-linecap="butt" stroke-miterlimit="2" stroke-width=".18" font-family="&quot;CopperplateGothic-Bold&quot;,&quot;Copperplate Gothic Bold&quot;,sans-serif" font-size="7.08" transform="matrix(5.4 .03 -.09 5.52 256.53 67.4)">s</text><text fill="#bfbfbf" stroke="#fff" stroke-linecap="butt" stroke-miterlimit="2" stroke-width=".18" font-family="&quot;CopperplateGothic-Bold&quot;,&quot;Copperplate Gothic Bold&quot;,sans-serif" font-size="7.08" transform="matrix(5.35 .66 -.7 5.48 289.53 68.49)">i</text><text fill="#bfbfbf" stroke="#fff" stroke-linecap="butt" stroke-miterlimit="2" stroke-width=".18" font-family="&quot;CopperplateGothic-Bold&quot;,&quot;Copperplate Gothic Bold&quot;,sans-serif" font-size="7.08" transform="matrix(5.23 1.3 -1.34 5.36 310.05 71.13)">a</text><text fill="#bfbfbf" stroke="#fff" stroke-linecap="butt" stroke-miterlimit="2" stroke-width=".18" font-family="&quot;CopperplateGothic-Bold&quot;,&quot;Copperplate Gothic Bold&quot;,sans-serif" font-size="7.08" transform="matrix(4.8 2.49 -2.49 4.92 354.07 83.38)">W</text><text fill="#bfbfbf" stroke="#fff" stroke-linecap="butt" stroke-miterlimit="2" stroke-width=".18" font-family="&quot;CopperplateGothic-Bold&quot;,&quot;Copperplate Gothic Bold&quot;,sans-serif" font-size="7.08" transform="matrix(4.34 3.24 -3.22 4.47 399.85 109.46)">i</text><text fill="#bfbfbf" stroke="#fff" stroke-linecap="butt" stroke-miterlimit="2" stroke-width=".18" font-family="&quot;CopperplateGothic-Bold&quot;,&quot;Copperplate Gothic Bold&quot;,sans-serif" font-size="7.08" transform="matrix(3.88 3.8 -3.76 4 416.41 121.9)">n</text><text fill="#bfbfbf" stroke="#fff" stroke-linecap="butt" stroke-miterlimit="2" stroke-width=".18" font-family="&quot;CopperplateGothic-Bold&quot;,&quot;Copperplate Gothic Bold&quot;,sans-serif" font-size="7.08" transform="matrix(3.2 4.4 -4.34 3.33 443.04 149.21)">e</text><text fill="#bfbfbf" stroke="#fff" stroke-linecap="butt" stroke-miterlimit="2" stroke-width=".18" font-family="&quot;CopperplateGothic-Bold&quot;,&quot;Copperplate Gothic Bold&quot;,sans-serif" font-size="7.08" transform="matrix(2.49 4.87 -4.8 2.6 462.69 177.47)">s</text><text fill="#bfbfbf" stroke="#fff" stroke-linecap="butt" stroke-miterlimit="2" stroke-width=".18" font-family="&quot;CopperplateGothic-Bold&quot;,&quot;Copperplate Gothic Bold&quot;,sans-serif" font-size="7.08" transform="matrix(2.38 4.98 -4.85 2.38 62.45 371.99)">L</text><text fill="#bfbfbf" stroke="#fff" stroke-linecap="butt" stroke-miterlimit="2" stroke-width=".18" font-family="&quot;CopperplateGothic-Bold&quot;,&quot;Copperplate Gothic Bold&quot;,sans-serif" font-size="7.08" transform="matrix(3.15 4.52 -4.39 3.16 79.26 405.42)">a</text><text fill="#bfbfbf" stroke="#fff" stroke-linecap="butt" stroke-miterlimit="2" stroke-width=".18" font-family="&quot;CopperplateGothic-Bold&quot;,&quot;Copperplate Gothic Bold&quot;,sans-serif" font-size="7.08" transform="matrix(4.03 3.72 -3.6 4.08 107.29 442.53)">D</text><text fill="#bfbfbf" stroke="#fff" stroke-linecap="butt" stroke-miterlimit="2" stroke-width=".18" font-family="&quot;CopperplateGothic-Bold&quot;,&quot;Copperplate Gothic Bold&quot;,sans-serif" font-size="7.08" transform="matrix(4.48 3.13 -3.02 4.54 139.2 470.11)">i</text><text fill="#bfbfbf" stroke="#fff" stroke-linecap="butt" stroke-miterlimit="2" stroke-width=".18" font-family="&quot;CopperplateGothic-Bold&quot;,&quot;Copperplate Gothic Bold&quot;,sans-serif" font-size="7.08" transform="matrix(4.82 2.55 -2.44 4.9 156.43 482.03)">o</text><text fill="#bfbfbf" stroke="#fff" stroke-linecap="butt" stroke-miterlimit="2" stroke-width=".18" font-family="&quot;CopperplateGothic-Bold&quot;,&quot;Copperplate Gothic Bold&quot;,sans-serif" font-size="7.08" transform="matrix(5.14 1.75 -1.66 5.23 189.59 498.75)">n</text><text fill="#bfbfbf" stroke="#fff" stroke-linecap="butt" stroke-miterlimit="2" stroke-width=".18" font-family="&quot;CopperplateGothic-Bold&quot;,&quot;Copperplate Gothic Bold&quot;,sans-serif" font-size="7.08" transform="matrix(5.3 1.1 -1.02 5.4 226.1 509.98)">i</text><text fill="#bfbfbf" stroke="#fff" stroke-linecap="butt" stroke-miterlimit="2" stroke-width=".18" font-family="&quot;CopperplateGothic-Bold&quot;,&quot;Copperplate Gothic Bold&quot;,sans-serif" font-size="7.08" transform="matrix(5.38 .5 -.43 5.5 246.37 514)">s</text><text fill="#bfbfbf" stroke="#fff" stroke-linecap="butt" stroke-miterlimit="2" stroke-width=".18" font-family="&quot;CopperplateGothic-Bold&quot;,&quot;Copperplate Gothic Bold&quot;,sans-serif" font-size="7.08" transform="matrix(5.4 -.1 .16 5.52 279.42 516.17)">i</text><text fill="#bfbfbf" stroke="#fff" stroke-linecap="butt" stroke-miterlimit="2" stroke-width=".18" font-family="&quot;CopperplateGothic-Bold&quot;,&quot;Copperplate Gothic Bold&quot;,sans-serif" font-size="7.08" transform="matrix(5.34 -.73 .78 5.47 300.03 515.66)">a</text><text fill="#bfbfbf" stroke="#fff" stroke-linecap="butt" stroke-miterlimit="2" stroke-width=".18" font-family="&quot;CopperplateGothic-Bold&quot;,&quot;Copperplate Gothic Bold&quot;,sans-serif" font-size="7.08" transform="matrix(5.06 -1.88 1.9 5.19 345.16 508.26)">W</text><text fill="#bfbfbf" stroke="#fff" stroke-linecap="butt" stroke-miterlimit="2" stroke-width=".18" font-family="&quot;CopperplateGothic-Bold&quot;,&quot;Copperplate Gothic Bold&quot;,sans-serif" font-size="7.08" transform="matrix(4.72 -2.62 2.62 4.85 393.72 488.19)">i</text><text fill="#bfbfbf" stroke="#fff" stroke-linecap="butt" stroke-miterlimit="2" stroke-width=".18" font-family="&quot;CopperplateGothic-Bold&quot;,&quot;Copperplate Gothic Bold&quot;,sans-serif" font-size="7.08" transform="matrix(4.38 -3.18 3.17 4.5 411.82 478.08)">n</text><text fill="#bfbfbf" stroke="#fff" stroke-linecap="butt" stroke-miterlimit="2" stroke-width=".19" font-family="&quot;CopperplateGothic-Bold&quot;,&quot;Copperplate Gothic Bold&quot;,sans-serif" font-size="7.08" transform="matrix(3.85 -3.82 3.78 3.98 442.1 454.98)">e</text><text fill="#bfbfbf" stroke="#fff" stroke-linecap="butt" stroke-miterlimit="2" stroke-width=".19" font-family="&quot;CopperplateGothic-Bold&quot;,&quot;Copperplate Gothic Bold&quot;,sans-serif" font-size="7.08" transform="matrix(3.29 -4.34 4.28 3.4 465.93 430.38)">s</text></svg>