<?xml version="1.0" encoding="UTF-8" standalone="no"?>
<!DOCTYPE svg PUBLIC "-//W3C//DTD SVG 1.1//EN" "http://www.w3.org/Graphics/SVG/1.1/DTD/svg11.dtd">
<svg width="100%" height="100%" viewBox="0 0 512 512" version="1.1" xmlns="http://www.w3.org/2000/svg" xmlns:xlink="http://www.w3.org/1999/xlink" xml:space="preserve" xmlns:serif="http://www.serif.com/" style="fill-rule:evenodd;clip-rule:evenodd;stroke-linejoin:round;stroke-miterlimit:2;">
    <g transform="matrix(9.72832,0,0,8.61099,-55.9634,-20.2697)">
        <path d="M27,12C26.086,12 25.333,12.752 25.333,13.667C25.333,14.581 26.086,15.333 27,15.333L37,15.333C37.914,15.333 38.667,14.581 38.667,13.667C38.667,12.752 37.914,12 37,12L27,12ZM42,32C42,37.486 37.486,42 32,42C26.514,42 22,37.486 22,32C22,26.514 26.514,22 32,22C37.486,22 42,26.514 42,32Z" style="fill:rgb(135,131,125);fill-rule:nonzero;stroke:rgb(135,131,125);stroke-width:0.11px;"/>
    </g>
    <g transform="matrix(9.72832,0,0,8.61099,-55.9634,-20.2697)">
        <path d="M20.333,5.333C15.762,5.333 12,9.095 12,13.667L12,52C12,55.657 15.009,58.667 18.667,58.667L45.333,58.667C48.991,58.667 52,55.657 52,52L52,13.667C52,9.095 48.238,5.333 43.667,5.333L20.333,5.333ZM15.333,13.667C15.333,10.924 17.59,8.667 20.333,8.667L43.667,8.667C46.41,8.667 48.667,10.924 48.667,13.667L48.667,49.65C47.867,49.01 47,48.46 46.08,48.01C43.307,46.623 38.877,45.333 32,45.333C25.123,45.333 20.693,46.623 17.92,48.01C17,48.46 16.133,49.01 15.333,49.65L15.333,13.667Z" style="fill:rgb(135,131,125);fill-rule:nonzero;stroke:rgb(135,131,125);stroke-width:0.11px;"/>
    </g>
</svg>
