<?xml version="1.0" encoding="UTF-8" standalone="no"?>
<!DOCTYPE svg PUBLIC "-//W3C//DTD SVG 1.1//EN" "http://www.w3.org/Graphics/SVG/1.1/DTD/svg11.dtd">
<svg width="100%" height="100%" viewBox="0 0 512 512" version="1.1" xmlns="http://www.w3.org/2000/svg" xmlns:xlink="http://www.w3.org/1999/xlink" xml:space="preserve" xmlns:serif="http://www.serif.com/" style="fill-rule:evenodd;clip-rule:evenodd;stroke-linejoin:round;stroke-miterlimit:2;">
    <g transform="matrix(0.92244,0,0,0.92244,1.91879,12.4348)">
        <path d="M512,481.835L378.411,348.245C409.611,310.086 426.667,262.282 426.667,212.992C426.667,95.773 330.21,-0.683 212.992,-0.683C95.773,-0.683 -0.683,95.773 -0.683,212.992C-0.683,330.21 95.773,426.667 212.992,426.667C262.282,426.667 310.086,409.611 348.245,378.411L481.835,512L512,481.835ZM213.333,384C119.708,384 42.667,306.958 42.667,213.333C42.667,119.708 119.708,42.667 213.333,42.667C306.958,42.667 384,119.708 384,213.333C383.895,306.919 306.919,383.895 213.333,384Z" style="fill:rgb(48,64,64);fill-rule:nonzero;stroke:rgb(48,64,64);stroke-width:1px;"/>
    </g>
</svg>
