<!DOCTYPE svg PUBLIC "-//W3C//DTD SVG 1.1//EN" "http://www.w3.org/Graphics/SVG/1.1/DTD/svg11.dtd">
<!-- Uploaded to: SVG Repo, www.svgrepo.com, Transformed by: SVG Repo Mixer Tools -->
<svg fill="#000000" width="64px" height="64px" viewBox="-5.97 -5.97 71.65 71.65" xmlns="http://www.w3.org/2000/svg">
<g id="SVGRepo_bgCarrier" stroke-width="0"/>
<g id="SVGRepo_iconCarrier"> <g id="_6" data-name="6" transform="translate(-174.649 -246.14)"> <path id="Path_218" data-name="Path 218" d="M210.928,280.908c16.269-1.229,4.789-23.573,4.789-23.573h-12.47s-11.481,22.344,4.791,23.573v20.4l-6.939,4.543H217.86l-6.932-4.543Z"/> <path id="Path_219" data-name="Path 219" d="M181.635,255.31h-.9v-9.17h5.413v9.17h-.9v-8.237h-3.609Zm7.625,12.123c3.374,3.772,2.953,9.482,2.953,9.482v26.267a2.46,2.46,0,0,1-2.937,2.641H177.619a2.471,2.471,0,0,1-2.953-2.641V276.915s-.42-5.71,2.953-9.482c2.644-2.953,3.109-3.575,3.109-10.258,0-.1,0-.933,0-.933h5.429s0,.826,0,.933C186.15,263.858,186.617,264.48,189.26,267.433Zm.921,10.372H176.7v18.578h13.482V277.8Zm-7.3,16.609a1,1,0,0,0,.952-.34,1.02,1.02,0,0,0,.157-.919.96.96,0,0,0-1.7-.216.954.954,0,0,0,.593,1.475Zm1.265-1.754a.956.956,0,0,0,.841-1.414.992.992,0,0,0-.787-.5.963.963,0,0,0-.935.521,1,1,0,0,0,.013.9A.972.972,0,0,0,184.147,292.66Zm-2.482-.092a1.015,1.015,0,0,0,1.038-.16.974.974,0,0,0,.281-.994.958.958,0,0,0-.732-.665,1,1,0,0,0-1.022.455.971.971,0,0,0-.065.846A1.011,1.011,0,0,0,181.665,292.568Zm-1.051-1.779a.984.984,0,0,0,.906-.057.961.961,0,0,0-.2-1.736,1,1,0,0,0-1.055.315.944.944,0,0,0-.158.955A1,1,0,0,0,180.614,290.789Zm2.255.073a.983.983,0,0,0,1.05-.467,1.014,1.014,0,0,0,.03-.894.964.964,0,0,0-1.729,0,.992.992,0,0,0,.056.959A1,1,0,0,0,182.869,290.862Zm2.1-.02a.986.986,0,0,0,1.03-.436.961.961,0,0,0,.011-.986.978.978,0,0,0-.866-.478,1.01,1.01,0,0,0-.87.561.977.977,0,0,0,.076.933A.987.987,0,0,0,184.968,290.842Zm-4.714-1.784a.948.948,0,0,0,.66-.627.979.979,0,0,0-1.826-.69.961.961,0,0,0,1.166,1.317Zm1.6.026a.973.973,0,0,0,1-.386,1,1,0,0,0,.071-.981.965.965,0,0,0-.9-.526,1,1,0,0,0-.851.583.965.965,0,0,0,.1.921A1,1,0,0,0,181.854,289.084Zm4.379.035a.993.993,0,0,0,.848-.547.975.975,0,0,0-.092-.974.969.969,0,1,0-.756,1.521Zm-2.08-.034a1.017,1.017,0,0,0,.848-.516.986.986,0,0,0,.012-.866,1.006,1.006,0,0,0-1-.531.99.99,0,0,0-.758.534,1.034,1.034,0,0,0,.015.872A.987.987,0,0,0,184.153,289.085Zm-3.655-1.913a1.011,1.011,0,0,0,1.084,0,.977.977,0,0,0,.392-1.053.956.956,0,0,0-.745-.691,1,1,0,0,0-.976.38.967.967,0,0,0-.067,1.029A1.049,1.049,0,0,0,180.5,287.172Zm-1.958.063a1.01,1.01,0,0,0,1.05-.155.948.948,0,0,0,.268-1.053.978.978,0,0,0-.781-.616.966.966,0,0,0-.96.455.989.989,0,0,0-.005.981A.953.953,0,0,0,178.54,287.235Zm6.432.1a1.021,1.021,0,0,0,.952-.332,1,1,0,0,0,.164-.946.968.968,0,0,0-.769-.616,1,1,0,0,0-.989.441.957.957,0,0,0-.035.94A1,1,0,0,0,184.972,287.33Zm1.835-.091a.965.965,0,0,0,1.4-.922.953.953,0,0,0-.6-.826.969.969,0,0,0-1.245,1.285A1,1,0,0,0,186.807,287.239Zm-4.091-.013a.976.976,0,0,0,1.032-.161.994.994,0,0,0,.281-1.005.961.961,0,0,0-1.628-.363.973.973,0,0,0-.181,1.028A1.012,1.012,0,0,0,182.716,287.226Zm-2.916-1.671a1.022,1.022,0,0,0,1.014-.406,1,1,0,0,0,.067-.963.956.956,0,0,0-.729-.517.959.959,0,1,0-.352,1.886Zm1.937-.038a.961.961,0,0,0,1.21-1.312.973.973,0,0,0-.685-.525.985.985,0,0,0-.947.356.958.958,0,0,0,.422,1.481Zm4.282.058a.96.96,0,0,0,1.127-1.216.975.975,0,0,0-1.7-.3.957.957,0,0,0-.134.933A.989.989,0,0,0,186.019,285.575Zm-2.514-.259a1.018,1.018,0,0,0,.888.207.948.948,0,0,0,.449-1.6,1,1,0,0,0-1.042-.228.981.981,0,0,0-.59.654,1.019,1.019,0,0,0,.27.952A.021.021,0,0,0,183.505,285.316Zm-.307-1.307c.238-.091.15-.36.225-.537a3.024,3.024,0,0,1,2.162-2.218l2.528.009a.42.42,0,0,0,.434-.152.455.455,0,0,0,.046-.393.442.442,0,0,0-.349-.252l-2.746-.014-6.088-.014a.524.524,0,0,0-.491.152.41.41,0,0,0-.041.447.459.459,0,0,0,.264.193l2.887.007,2.2.01a3.637,3.637,0,0,0-1.372,2.073c-.023.166-.116.358-.033.527A.29.29,0,0,0,183.2,284.009Z"/> </g> </g>
</svg>